# xmcd
#
# Track frame offsets:
#	182
#	12435
#	23832
#	36397
#	46535
#	60272
#	70307
#	79930
#	95057
#	106062
#
# Disc length: 1560 seconds
#
# Revision: 2
# Processed by: cddbd v1.4b42PL1 Copyright (c) Steve Scherf et al.
# Submitted via: audiograbber 1.80
#
DISCID=7606160a
DTITLE=Porter Wagoner - Greatest Songs
DYEAR=1900
DGENRE=
TTITLE0=A Satisfied Mind
TTITLE1=Misey Loves Company
TTITLE2=The Carroll County Accident
TTITLE3=Green, Green Grass of Home
TTITLE4=Skid Row Joe
TTITLE5=Big Wind
TTITLE6=Sorrow on the Rocks
TTITLE7=The Cold Hard Facts of Life
TTITLE8=Eat, Drink, and be Merry
TTITLE9=What Would You Do?
EXTD=
EXTT0=
EXTT1=
EXTT2=
EXTT3=
EXTT4=
EXTT5=
EXTT6=
EXTT7=
EXTT8=
EXTT9=
PLAYORDER=
